Coordinates
version=1
nRows=9
nColumns=36
inDegrees=yes

Units are S.I. units (second, meters, Newtons, ...)
If the header above contains a line with 'inDegrees', this indicates whether rotational values are in degrees (yes) or radians (no).

endheader
time	pelvis_tilt	pelvis_list	pelvis_rotation	pelvis_tx	pelvis_ty	pelvis_tz	hip_flexion_r	hip_adduction_r	hip_rotation_r	knee_angle_r	knee_angle_r_beta	ankle_angle_r	subtalar_angle_r	mtp_angle_r	hip_flexion_l	hip_adduction_l	hip_rotation_l	knee_angle_l	knee_angle_l_beta	ankle_angle_l	subtalar_angle_l	mtp_angle_l	lumbar_extension	lumbar_bending	lumbar_rotation	arm_flex_r	arm_add_r	arm_rot_r	elbow_flex_r	pro_sup_r	arm_flex_l	arm_add_l	arm_rot_l	elbow_flex_l	pro_sup_l
      1.95000000	      2.88821871	      4.08454919	     -6.37377389	      0.27499544	      0.92304083	     -0.12601659	     48.15279350	     -4.78167845	      9.47998427	     18.78774599	      0.32790803	     -7.18105778	      2.86845955	     -7.49999906	     19.99479066	     11.24022589	     -2.45887602	     43.08981346	      0.75205912	     23.24459342	     -4.14449181	     -7.49999906	    -13.69347921	    -10.34671510	      0.36311833	     44.13267637	      9.50401938	     68.24693718	    118.49709040	     91.23519042	     47.35307261	     -1.28709770	     72.37826413	    120.04902837	     81.63094761
      1.96666670	      2.92043265	      3.20258549	     -6.56488906	      0.28283469	      0.93119815	     -0.12042157	     46.84908429	     -3.97468176	      8.88858028	     17.39494152	      0.30359900	     -7.25955867	      3.46350101	     -7.49999908	     18.05739460	     10.19142664	     -2.16752073	     40.39182711	      0.70497037	     22.04829061	     -3.90707275	     -7.49999908	    -13.24468281	     -9.57539476	      1.13156353	     43.09172719	      8.90348915	     67.05345146	    118.16924266	     91.36404612	     46.45897379	     -1.08351640	     72.13110438	    120.01218398	     81.56416222
      1.98333330	      2.72706990	      2.42251808	     -6.67571325	      0.28436693	      0.93822045	     -0.12074297	     46.02105165	     -3.23693740	      8.31298716	     16.28415550	      0.28421213	     -7.31874537	      4.00860525	     -7.49999909	     16.42376415	      9.18023963	     -2.02466994	     37.76817288	      0.65917897	     20.84656431	     -3.47357343	     -7.49999909	    -12.49902494	     -8.94271172	      1.64583780	     41.70067055	      8.53910522	     66.38952627	    117.81051398	     91.39824793	     45.69373202	     -0.44419902	     72.22901418	    120.64122166	     81.53874389
      2.00000000	      2.64664112	      1.44953861	     -6.68296967	      0.28473014	      0.93831646	     -0.12150472	     45.30786381	     -2.40398175	      7.68620218	     15.52170789	      0.27090491	     -6.87503240	      4.22766608	     -7.49999913	     15.23796720	      7.97619068	     -1.94283429	     36.08426578	      0.62978925	     19.87263516	     -3.02456669	     -7.49999913	    -12.03276058	     -8.00763134	      1.93949725	     40.71979354	      7.91411910	     65.82048861	    119.44888890	     90.98241113	     45.23923278	      0.33105851	     71.99522703	    120.69052723	     81.22476351
      2.01666670	      2.41242158	      0.56558642	     -6.82166930	      0.28572300	      0.94544385	     -0.12227914	     45.28106436	     -1.50755465	      7.25461662	     15.48904971	      0.27033492	     -6.23249259	      4.13005149	     -7.49999914	     14.50673537	      6.81759457	     -2.17568711	     34.72739798	      0.60610744	     19.21157768	     -2.58329900	     -7.49999914	    -11.23819163	     -7.40458869	      2.11761073	     39.84916558	      8.19790337	     66.14446879	    119.01531746	     90.95658608	     44.75797239	      0.73772042	     71.95342514	    119.56069201	     81.13221818
      2.03333330	      2.11350327	     -0.50231381	     -6.96809517	      0.28629400	      0.94819471	     -0.12319331	     45.11562447	     -0.35401642	      6.79557835	     15.42068939	      0.26914180	     -5.78557108	      4.19712234	     -7.49999922	     13.89020093	      5.50050746	     -2.36204558	     33.52447677	      0.58511250	     18.81986176	     -2.23840230	     -7.49999922	    -10.24518821	     -6.52181969	      2.48357341	     39.50592799	      8.08237819	     66.14301973	    118.50360358	     89.43314300	     44.03541844	      0.41170399	     70.23540827	    116.68524100	     79.35309513
      2.05000000	      1.80663062	     -1.33264624	     -6.90628633	      0.28044463	      0.95050222	     -0.13011495	     45.28643965	      0.52782868	      6.41564357	     15.93252363	      0.27807500	     -5.96902099	      4.34224721	     -7.49999923	     13.52803536	      4.48393235	     -2.63054694	     32.45180285	      0.56639081	     18.07030543	     -2.14391905	     -7.49999923	     -9.53714548	     -5.63083639	      2.31224488	     40.53152034	      8.08905326	     66.02794775	    118.57203510	     89.49634405	     44.76036682	      0.50423881	     69.98452855	    116.03492872	     79.32132432
      2.06666670	      1.51933838	     -1.96924158	     -6.79701586	      0.28123233	      0.95000398	     -0.13060223	     45.42393924	      1.21378567	      5.89087671	     16.26537449	      0.28388434	     -5.84214421	      5.35630004	     -7.49999928	     12.85485502	      3.87331003	     -2.46485238	     30.87413102	      0.53885524	     17.19580608	     -2.57122342	     -7.49999928	     -9.11564298	     -4.84178406	      1.90874651	     42.21630768	      7.87884544	     66.84746770	    118.78316510	     88.46796410	     45.56690342	      0.73623762	     68.94055161	    114.61407857	     78.19026495
      2.08333330	      1.03223846	     -2.90494261	     -6.75400432	      0.28849868	      0.95090304	     -0.12465547	     45.76529399	      2.24242020	      5.49884020	     16.78784851	      0.29300323	     -5.56614804	      5.94385543	     -7.49999930	     12.25704908	      2.79889118	     -2.40473187	     29.31501470	      0.51164353	     16.49223685	     -2.69076071	     -7.49999930	     -8.18803862	     -3.68006455	      1.63614379	     43.16448729	      8.51855916	     67.24177109	    118.95554154	     88.82586444	     45.61272611	      0.54821131	     68.49364006	    114.29620072	     78.28312872
